PathFileType   4   (X/Y/Z)
DataRate  CameraRate  NumFrames  NumMarkers  Units  OrigDataRate  OrigDataStartFrame  OrigNumFrames  
  120.0      120.0        9         37         mm      120.0          101        160
Frame#      Time                    midhip                           hip_r                           hip_l                          knee_r                          knee_l                         ankle_r                         ankle_l                         midasis                          asis_r                          asis_l                          psis_r                          psis_l                    epicondLat_r                    epicondLat_l                    epicondMed_r                    epicondMed_l                  malleolusLat_r                  malleolusLat_l                 malleolusMedv_r                 malleolusMedv_l                            neck                   subclavicle_r                   subclavicle_l                    sternalnotch                  xyphoidprocess                     thighwand_r                     thighwand_l                     upperleg1_r                     upperleg1_l                     upperleg2_r                     upperleg2_l                     shankwand_r                     shankwand_l                     lowerleg1_r                     lowerleg1_l                           toe_r                           toe_l            
              X1          Y1          Z1          X2          Y2          Z2          X3          Y3          Z3          X4          Y4          Z4          X5          Y5          Z5          X6          Y6          Z6          X7          Y7          Z7          X8          Y8          Z8          X9          Y9          Z9          X10          Y10          Z10          X11          Y11          Z11          X12          Y12          Z12          X13          Y13          Z13          X14          Y14          Z14          X15          Y15          Z15          X16          Y16          Z16          X17          Y17          Z17          X18          Y18          Z18          X19          Y19          Z19          X20          Y20          Z20          X21          Y21          Z21          X22          Y22          Z22          X23          Y23          Z23          X24          Y24          Z24          X25          Y25          Z25          X26          Y26          Z26          X27          Y27          Z27          X28          Y28          Z28          X29          Y29          Z29          X30          Y30          Z30          X31          Y31          Z31          X32          Y32          Z32          X33          Y33          Z33          X34          Y34          Z34          X35          Y35          Z35          X36          Y36          Z36          X37          Y37          Z37          

	101	0.93333	1042.681	738.142	-236.489	1037.357	737.190	-179.317	1048.004	739.093	-293.662	1153.427	399.159	-154.609	862.540	432.570	-274.349	1291.876	77.762	-155.403	742.935	80.409	-258.169	1076.952	811.431	-232.823	1081.955	815.844	-123.328	1071.950	807.018	-342.319	899.619	841.027	-183.929	900.809	839.538	-236.878	1183.133	418.905	-95.259	877.312	407.123	-332.040	1161.743	402.203	-215.056	886.441	414.496	-214.076	1284.496	75.027	-118.738	734.744	81.959	-293.705	1298.644	76.392	-188.666	738.237	85.173	-224.542	955.596	1232.541	-224.839	1060.203	1156.942	-172.849	1062.865	1159.576	-280.128	1058.767	1158.201	-229.638	1062.523	1056.201	-234.567	1224.878	590.186	-133.524	1034.280	509.920	-359.081	1161.606	599.913	-92.717	1036.184	559.734	-291.978	1177.320	543.852	-97.640	1006.158	509.896	-282.141	1361.470	232.627	-122.546	768.052	173.620	-388.843	1299.767	193.387	-144.114	766.716	169.993	-308.788	1374.322	94.899	-139.163	824.471	46.149	-258.754
	102	0.94167	1055.954	736.619	-236.423	1050.703	735.787	-179.242	1061.205	737.451	-293.604	1167.010	399.004	-154.556	871.279	433.624	-275.005	1302.201	75.988	-155.780	744.836	83.074	-259.671	1090.109	810.009	-232.913	1095.205	814.698	-123.407	1085.014	805.320	-342.420	912.477	839.528	-183.463	913.580	838.087	-236.564	1196.191	417.889	-95.196	887.303	406.658	-332.564	1174.850	402.946	-216.576	895.482	416.644	-212.544	1294.562	73.190	-119.173	736.986	84.793	-295.276	1308.264	74.597	-189.065	739.929	87.922	-226.072	967.165	1230.823	-223.733	1071.791	1155.389	-171.895	1074.083	1157.605	-278.535	1070.159	1156.429	-228.355	1073.809	1054.409	-232.914	1238.470	589.627	-133.544	1045.219	508.349	-359.466	1175.201	599.248	-92.195	1047.877	558.116	-292.851	1190.876	543.504	-97.762	1016.659	508.607	-282.198	1373.017	229.827	-121.927	773.359	175.592	-390.072	1310.772	190.664	-143.314	771.120	171.765	-310.180	1384.465	91.699	-139.543	825.551	46.856	-259.350
	103	0.95000	1069.395	735.292	-236.323	1064.217	734.589	-179.134	1074.573	735.995	-293.512	1180.534	398.451	-154.441	882.019	432.331	-275.548	1310.866	74.140	-156.140	747.082	86.139	-261.241	1103.397	808.830	-232.999	1108.578	813.809	-123.470	1098.217	803.851	-342.529	925.404	838.280	-183.029	926.551	836.884	-236.239	1208.950	416.963	-95.130	898.030	406.177	-333.003	1187.946	403.053	-217.936	906.326	415.722	-212.485	1303.150	71.368	-119.547	739.592	88.030	-296.914	1316.195	72.358	-189.416	741.483	91.459	-227.677	978.635	1229.235	-222.412	1083.411	1153.803	-171.007	1085.208	1156.081	-276.720	1081.517	1154.877	-226.991	1085.137	1052.859	-231.644	1252.110	589.187	-133.706	1056.690	507.028	-359.880	1189.155	598.298	-92.022	1059.226	556.478	-293.451	1204.699	542.719	-98.090	1027.703	506.887	-282.536	1383.759	226.588	-121.885	779.172	177.840	-391.331	1320.449	187.502	-142.936	775.444	174.098	-311.784	1393.126	87.818	-140.177	826.884	47.750	-260.117
	104	0.95833	1082.965	734.219	-236.188	1077.843	733.659	-178.992	1088.087	734.780	-293.384	1194.401	397.506	-154.313	894.549	430.108	-275.955	1317.925	72.364	-156.462	749.740	89.637	-262.849	1116.772	807.954	-233.057	1122.005	813.254	-123.499	1111.540	802.654	-342.616	938.347	837.304	-182.670	939.735	835.917	-235.938	1221.382	416.262	-95.085	909.584	405.653	-333.324	1201.770	401.665	-217.598	919.175	413.016	-213.664	1310.364	69.719	-119.828	742.635	91.703	-298.591	1323.586	69.617	-189.563	743.767	95.588	-229.361	990.280	1227.763	-220.977	1094.970	1152.206	-170.022	1096.642	1155.127	-275.314	1093.011	1153.619	-225.793	1096.687	1051.634	-231.081	1265.698	588.893	-134.022	1068.772	505.992	-360.252	1203.252	597.486	-92.632	1071.086	554.803	-294.177	1218.711	541.916	-98.428	1040.062	505.317	-283.502	1393.716	223.124	-122.587	785.582	180.382	-392.599	1329.476	184.517	-143.684	780.617	176.808	-313.627	1400.408	83.479	-141.016	828.501	48.778	-261.036
	105	0.96667	1096.638	733.491	-236.010	1091.543	733.086	-178.810	1101.734	733.895	-293.210	1204.708	397.196	-154.156	907.024	428.392	-276.203	1323.494	70.772	-156.720	752.909	93.594	-264.477	1130.177	807.451	-233.062	1135.402	813.121	-123.478	1124.952	801.782	-342.647	951.273	836.671	-182.423	953.100	835.199	-235.717	1233.501	415.943	-95.088	922.069	405.060	-333.516	1211.407	400.400	-215.983	932.556	411.700	-213.200	1316.324	68.347	-119.992	746.212	95.835	-300.287	1330.596	66.335	-189.418	746.984	99.710	-231.039	1001.954	1226.742	-219.634	1106.611	1151.169	-168.766	1108.327	1154.438	-274.130	1104.675	1152.764	-224.575	1108.449	1050.801	-230.194	1279.121	588.793	-134.515	1081.555	505.284	-360.498	1217.525	597.591	-92.835	1083.645	553.024	-295.012	1232.038	541.094	-98.293	1053.150	504.211	-284.134	1402.887	219.630	-124.035	792.674	183.237	-393.858	1337.888	181.663	-145.580	786.867	179.441	-315.198	1406.419	78.940	-141.976	830.422	49.869	-262.064
	106	0.97500	1110.344	733.214	-235.738	1105.223	732.995	-178.540	1115.465	733.434	-292.937	1213.781	397.862	-154.050	920.490	427.114	-276.285	1327.766	69.421	-156.886	756.707	98.020	-266.108	1143.549	807.391	-232.993	1148.691	813.492	-123.398	1138.408	801.290	-342.587	964.138	836.447	-182.320	966.576	834.769	-235.644	1245.328	416.118	-95.169	935.585	404.377	-333.598	1219.134	400.044	-213.682	946.896	410.357	-212.724	1321.174	67.281	-120.032	750.427	100.437	-301.982	1336.012	63.353	-189.230	750.476	103.917	-232.679	1013.828	1226.745	-217.672	1118.431	1150.640	-167.376	1120.280	1153.962	-272.747	1116.565	1152.272	-223.191	1120.003	1050.300	-228.863	1292.261	588.942	-135.217	1095.129	504.948	-360.536	1231.586	598.612	-92.620	1097.105	551.931	-295.272	1244.900	541.008	-97.798	1066.972	503.330	-284.306	1411.242	216.258	-126.072	800.514	186.429	-395.096	1345.092	179.351	-147.837	793.551	182.267	-316.217	1411.288	74.451	-142.952	832.673	50.944	-263.144
	107	0.98333	1123.977	733.468	-235.325	1118.768	733.482	-178.134	1129.185	733.455	-292.516	1225.924	399.260	-154.130	935.850	425.357	-276.232	1331.005	68.315	-156.940	761.288	102.904	-267.731	1156.836	807.826	-232.825	1161.816	814.426	-123.243	1151.856	801.226	-342.407	976.931	836.693	-182.395	980.069	834.673	-235.770	1256.846	416.800	-95.336	950.203	403.583	-333.619	1230.275	400.745	-212.252	962.863	408.730	-212.808	1325.083	66.487	-119.956	755.410	105.502	-303.661	1338.908	61.855	-189.396	754.748	108.751	-234.332	1025.927	1227.949	-215.464	1130.235	1150.495	-165.744	1132.325	1154.301	-271.537	1128.495	1152.406	-221.776	1131.126	1050.437	-227.910	1305.025	589.356	-136.150	1109.576	505.013	-360.303	1244.734	600.161	-92.891	1111.412	552.079	-295.649	1257.790	542.560	-97.766	1081.698	502.914	-284.580	1418.767	213.101	-128.378	809.143	189.980	-396.305	1351.053	178.376	-149.452	801.062	185.700	-317.251	1415.167	70.212	-143.848	835.283	51.932	-264.215
	108	0.99167	1137.330	734.355	-234.754	1131.980	734.665	-177.577	1142.680	734.044	-291.931	1237.142	401.863	-154.336	951.190	425.186	-276.115	1333.479	67.420	-156.883	766.819	108.195	-269.334	1169.996	808.779	-232.534	1174.747	815.936	-122.984	1165.246	801.623	-342.083	989.652	837.426	-182.672	993.485	834.945	-236.110	1267.978	417.881	-95.564	965.952	402.665	-333.653	1240.313	403.494	-212.852	978.427	409.342	-211.867	1328.219	65.894	-119.785	761.299	110.990	-305.305	1339.977	61.383	-189.705	760.481	114.185	-235.992	1037.911	1229.469	-213.740	1141.967	1151.246	-163.976	1144.269	1155.752	-270.615	1140.339	1153.537	-220.435	1142.627	1051.600	-227.212	1317.363	589.990	-137.297	1124.947	505.478	-359.774	1257.820	602.436	-93.328	1126.784	552.797	-295.743	1270.357	545.015	-98.473	1096.833	503.057	-284.224	1425.463	210.195	-130.612	818.589	193.898	-397.489	1356.009	177.942	-150.219	810.020	189.784	-318.466	1418.220	66.357	-144.587	838.291	52.787	-265.220
	109	1.00000	1150.530	735.811	-234.020	1145.010	736.450	-176.862	1156.049	735.172	-291.178	1246.503	405.109	-154.550	967.332	426.115	-276.004	1335.425	66.692	-156.740	773.489	113.802	-270.901	1183.003	810.234	-232.096	1187.481	817.978	-122.586	1178.524	802.491	-341.605	1002.320	838.627	-183.151	1006.746	835.606	-236.632	1278.592	419.167	-95.795	982.810	401.621	-333.784	1248.357	407.048	-213.877	993.867	410.460	-211.020	1330.736	65.426	-119.556	768.250	116.824	-306.897	1340.295	61.091	-189.838	767.173	119.850	-237.594	1049.996	1230.848	-212.450	1153.950	1152.976	-162.634	1156.328	1157.874	-269.619	1152.362	1155.465	-219.269	1154.968	1053.559	-226.395	1329.262	590.728	-138.574	1141.246	506.315	-358.962	1270.999	605.286	-93.947	1142.693	553.955	-294.361	1282.547	547.572	-99.510	1112.542	503.984	-282.879	1431.357	207.533	-132.488	828.877	198.174	-398.653	1360.262	177.091	-150.315	819.799	194.228	-319.428	1420.603	62.961	-145.129	841.753	53.510	-266.114
